<svg width="38" height="38" viewBox="0 0 38 38" fill="none" xmlns="http://www.w3.org/2000/svg">
<path d="M11.0832 32.7148V30.0833C11.0832 29.2434 11.4168 28.438 12.0107 27.8441C12.6045 27.2503 13.41 26.9166 14.2498 26.9166H23.7498C24.5897 26.9166 25.3951 27.2503 25.989 27.8441C26.5829 28.438 26.9165 29.2434 26.9165 30.0833V32.7148M34.8332 19C34.8332 27.7445 27.7443 34.8333 18.9998 34.8333C10.2553 34.8333 3.1665 27.7445 3.1665 19C3.1665 10.2555 10.2553 3.16663 18.9998 3.16663C27.7443 3.16663 34.8332 10.2555 34.8332 19ZM23.7498 15.8333C23.7498 18.4566 21.6232 20.5833 18.9998 20.5833C16.3765 20.5833 14.2498 18.4566 14.2498 15.8333C14.2498 13.2099 16.3765 11.0833 18.9998 11.0833C21.6232 11.0833 23.7498 13.2099 23.7498 15.8333Z" stroke="black" stroke-width="3" stroke-linecap="round" stroke-linejoin="round"/>
</svg>
